<svg id="logo" width="100%" height="100%"
  xmlns="http://www.w3.org/2000/svg" viewBox="0 0 589.1 165" class="mainHeader__logo" version="1.1"
  xmlns:xlink="http://www.w3.org/1999/xlink" x="0px" y="0px" xml:space="preserve" fill="currentColor">
  <path d="M525.5,97.3V78.8h8.6v-8.1h-8.6v-9.3h-11.1v9.3h-7.3v8.1h7.3v19.5c0,7.8,5.8,11.6,13.5,11.6h6.2v-8.1h-3.8
              C527.1,101.8,525.5,100.8,525.5,97.3L525.5,97.3L525.5,97.3z M492.2,110h11.1V85.1c0-8.7-3.9-15.3-13.1-15.3
              c-6.9,0-10.7,4-12.5,8.9v-8h-11V110h11.1V87.6c0-6.9,2.7-10.1,7.2-10.1s7.2,3.1,7.2,9.9L492.2,110L492.2,110z M449.1,110H460V70.7
              h-10.9v9c-1.7-5.1-6.1-9.8-13-9.8c-9.7,0-16.2,8.8-16.2,20.6s6.5,20.5,16.2,20.5c6.1,0,10.9-3.7,13-8.8V110z M449.5,90.4
              c0,8-3.3,12.9-9.3,12.9s-9.1-5-9.1-12.9s3.1-13,9.1-13S449.5,82.3,449.5,90.4 M404.2,124.2l15.5-53.5H408l-9.4,33l-10.4-33h-11.1
              l1.2,3.8h-0.1l11.7,35.5h6.9l-4,14.2H404.2L404.2,124.2z M376.2,90.4c0-12.1-7.9-20.5-20.5-20.5s-20.5,8.5-20.5,20.5
              s7.9,20.5,20.5,20.5S376.2,102.4,376.2,90.4 M364.9,90.4c0,8-3.2,13-9.2,13s-9.2-5-9.2-13s3.2-13,9.2-13S364.9,82.4,364.9,90.4
              M321.7,110l16.7-55h-12.3L311,107.8L295.8,55h-12.3l16.6,55H321.7L321.7,110z M285.3,90.5c0-12.4-7.7-20.7-19.8-20.7
              s-20,8.4-20,20.5s7.7,20.5,20,20.5c9.4,0,16.4-4.2,19-12.5h-11.1c-1.4,3.2-3.5,5-7.7,5c-4.6,0-8-3.1-8.8-9.7h28.3
              C285.2,92.5,285.3,91.5,285.3,90.5 M274,86.2h-17.1c0.9-6.2,4.2-8.9,8.6-8.9C270.1,77.3,273.4,80.7,274,86.2 M229.8,110h10.9V70.7
              h-11.1v22.4c0,6.7-2.4,10.1-7,10.1s-7.1-3.1-7.1-9.9V70.7h-11.1v24.9c0,8.7,3.8,15.3,12.9,15.3c6.9,0,10.6-3.9,12.4-8.6L229.8,110
              L229.8,110z M186.9,110H198V55h-11.1V110L186.9,110z M166.5,81.8c7.8-0.9,13.6-4.8,13.6-12.4S174.2,55,159.9,55h-22.7v55h22.9
              c14.3,0,21.8-5.8,21.8-15.3C181.9,86.4,175.9,82.4,166.5,81.8 M160.4,77h-11.6V64.6h11.6c5,0,7.9,2.1,7.9,6.3
              C168.3,75.1,165.4,77,160.4,77 M170.1,93.5c0,4.4-3.1,6.9-9.3,6.9h-12.2V86.6h12.2C167,86.6,170.1,89.1,170.1,93.5"></path>
  <g>
    <polygon points="51.2,60 62.5,71.2 51.2,82.5 39.9,71.2 		"></polygon>
    <polygon points="119,82.5 85,116.3 62.4,93.7 73.7,82.5 85.1,93.9 96.4,82.5 85,71.1 73.7,82.5 62.5,71.2 85.1,48.6"></polygon>
  </g>
</svg>